<?xml version="1.0" encoding="UTF-8" standalone="no"?>
<svg
   xmlns:dc="http://purl.org/dc/elements/1.1/"
   xmlns:cc="http://creativecommons.org/ns#"
   xmlns:rdf="http://www.w3.org/1999/02/22-rdf-syntax-ns#"
   xmlns:svg="http://www.w3.org/2000/svg"
   xmlns="http://www.w3.org/2000/svg"
   xmlns:sodipodi="http://sodipodi.sourceforge.net/DTD/sodipodi-0.dtd"
   xmlns:inkscape="http://www.inkscape.org/namespaces/inkscape"
   inkscape:version="1.0beta1 (32d4812, 2019-09-19)"
   sodipodi:docname="alps-switch-plate-3mm.svg"
   viewBox="0 0 973.33331 441.33334"
   height="441.33334"
   width="973.33331"
   xml:space="preserve"
   id="svg157"
   version="1.1">
  <metadata
     id="metadata163">
    <rdf:RDF>
      <cc:Work
         rdf:about="">
        <dc:format>image/svg+xml</dc:format>
        <dc:type
           rdf:resource="http://purl.org/dc/dcmitype/StillImage" />
        <dc:title></dc:title>
      </cc:Work>
    </rdf:RDF>
  </metadata>
  <defs
     id="defs161">
    <clipPath
       id="clipPath173"
       clipPathUnits="userSpaceOnUse">
      <path
         inkscape:connector-curvature="0"
         id="path171"
         d="M 0.06,331 H 730 V 0.06 H 0.06 Z" />
    </clipPath>
  </defs>
  <sodipodi:namedview
     inkscape:current-layer="svg157"
     inkscape:window-maximized="0"
     inkscape:window-y="68"
     inkscape:window-x="1572"
     inkscape:cy="170.28476"
     inkscape:cx="339.55929"
     inkscape:zoom="0.84307713"
     inkscape:document-units="mm"
     showgrid="false"
     id="namedview159"
     inkscape:window-height="1175"
     inkscape:window-width="2329"
     inkscape:pageshadow="2"
     inkscape:pageopacity="0"
     guidetolerance="10"
     gridtolerance="10"
     objecttolerance="10"
     borderopacity="1"
     inkscape:document-rotation="0"
     bordercolor="#666666"
     pagecolor="#ffffff" />
  <g
     transform="matrix(1.3333333,0,0,-1.3333333,0,441.33333)"
     inkscape:label="alps-switch-plate-3mm"
     inkscape:groupmode="layer"
     id="g165">
    <g
       id="g167">
      <g
         clip-path="url(#clipPath173)"
         id="g169">
        <path
           inkscape:connector-curvature="0"
           id="path175"
           style="fill:none;stroke:#000000;stroke-width:0.8;stroke-linecap:round;stroke-linejoin:miter;stroke-miterlimit:4;stroke-dasharray:none;stroke-opacity:1"
           d="m 673.145,310.638 c 0,2.227 -2.028,4.254 -4.254,4.254 -2.227,0 -4.25,-2.027 -4.25,-4.254 0,-2.227 2.023,-4.254 4.25,-4.254 2.226,0 4.254,2.027 4.254,4.254 z M 714.648,68.032 c 0,2.227 -2.023,4.254 -4.25,4.254 -2.226,0 -4.253,-2.027 -4.253,-4.254 0,-2.226 2.027,-4.253 4.253,-4.253 2.227,0 4.25,2.027 4.25,4.253 z M 453.008,15.685 c 0,2.226 -2.024,4.254 -4.25,4.254 -2.227,0 -4.254,-2.028 -4.254,-4.254 0,-2.227 2.027,-4.254 4.254,-4.254 2.226,0 4.25,2.027 4.25,4.254 z m -41.27,299.926 c 0,2.226 -2.023,4.254 -4.254,4.254 -2.226,0 -4.25,-2.028 -4.25,-4.254 0,-2.227 2.024,-4.254 4.25,-4.254 2.231,0 4.254,2.027 4.254,4.254 z M 364.965,1.404 h 80.082 c 3.297,0 6.594,0.289 9.844,0.859 L 706.113,46.56 c 7.309,1.289 14.043,5.578 18.297,11.66 4.258,6.078 5.985,13.871 4.699,21.18 L 689.09,306.361 c -1.149,6.496 -4.645,12.55 -9.695,16.793 -5.055,4.238 -11.625,6.628 -18.223,6.628 H 364.965 m 0,-328.378 h -80.078 c -3.297,0 -6.598,0.289 -9.844,0.859 L 23.82,46.56 C 16.512,47.849 9.777,52.138 5.52,58.22 1.266,64.298 -0.465,72.091 0.824,79.4 l 40.02,226.961 c 1.144,6.496 4.64,12.55 9.695,16.793 5.055,4.238 11.625,6.628 18.223,6.628 H 364.965 M 285.43,15.685 c 0,2.226 -2.028,4.254 -4.254,4.254 -2.227,0 -4.254,-2.028 -4.25,-4.254 -0.004,-2.227 2.023,-4.254 4.25,-4.254 2.226,0 4.254,2.027 4.254,4.254 z M 23.789,68.032 c 0,2.227 -2.027,4.254 -4.254,4.254 -2.226,0 -4.254,-2.027 -4.25,-4.254 -0.004,-2.226 2.024,-4.253 4.25,-4.253 2.227,0 4.254,2.027 4.254,4.253 z m 41.504,242.606 c 0,2.227 -2.023,4.254 -4.25,4.254 -2.231,0 -4.254,-2.027 -4.254,-4.254 0,-2.227 2.023,-4.254 4.254,-4.254 2.227,0 4.25,2.027 4.25,4.254 z m 261.406,4.973 c 0,2.226 -2.027,4.254 -4.254,4.254 -2.226,0 -4.25,-2.028 -4.25,-4.254 0,-2.227 2.024,-4.254 4.25,-4.254 2.227,0 4.254,2.027 4.254,4.254 z m -211.453,-37.805 -43.547,7.676 m 43.547,-7.676 -6.301,-35.734 m -37.246,43.41 -6.301,-35.731 m 0,0 43.547,-7.679 m -3.074,-17.446 -43.551,7.676 m 43.551,-7.676 -6.301,-35.734 m -37.25,43.41 -6.3,-35.73 m 0,0 43.55,-7.68 m -3.078,-17.445 -43.547,7.675 m 43.547,-7.675 -6.301,-35.735 m -37.246,43.41 -6.3,-35.73 m 0,0 43.546,-7.68 m -3.074,-17.445 -43.551,7.676 m 43.551,-7.676 -6.301,-35.735 m -37.25,43.411 -6.3,-35.731 m 0,0 43.55,-7.68 m 60.957,34.731 -43.55,7.68 m 43.55,-7.68 -6.3,-35.731 m -37.25,43.411 -6.301,-35.735 m 0,0 43.551,-7.676 m 15.675,88.911 -43.546,7.679 m 43.546,-7.679 -6.3,-35.731 m -37.246,43.41 -6.301,-35.734 m 0,0 43.547,-7.676 m 15.679,88.91 -43.55,7.68 m 43.55,-7.68 -6.3,-35.73" />
        <path
           inkscape:connector-curvature="0"
           id="path177"
           style="fill:none;stroke:#000000;stroke-width:0.8;stroke-linecap:round;stroke-linejoin:miter;stroke-miterlimit:4;stroke-dasharray:none;stroke-opacity:1"
           d="m 116.977,231.302 -6.301,-35.734 m 0,0 43.551,-7.676 m 15.675,88.91 -43.547,7.68 m 43.547,-7.68 -6.3,-35.73 m -37.247,43.41 -6.3,-35.735 m 0,0 43.547,-7.675 m 61.941,40.312 -43.547,7.676 m 43.547,-7.676 -6.301,-35.734 m -37.246,43.41 -6.301,-35.731 m 0,0 43.547,-7.679 m -3.074,-17.446 -43.551,7.68 m 43.551,-7.68 -6.301,-35.734 m -37.25,43.414 -6.301,-35.734 m 0,0 43.551,-7.68 m -3.078,-17.445 -43.547,7.679 m 43.547,-7.679 -6.301,-35.735 m -37.246,43.414 -6.301,-35.734 m 0,0 43.547,-7.68 m -3.074,-17.445 -43.551,7.68 m 43.551,-7.68 -6.301,-35.734 m -37.25,43.414 -6.301,-35.735 m 0,0 43.551,-7.679 m 56.528,9.605 -43.551,7.68 m 43.551,-7.68 -6.301,-35.73 m -37.25,43.41 -6.301,-35.731 m 0,0 43.551,-7.679 m 15.676,88.91 -43.547,7.679 m 43.547,-7.679 -6.301,-35.731 m -37.246,43.41 -6.301,-35.73 m 0,0 43.547,-7.68 m 15.68,88.91 -43.551,7.68 m 43.551,-7.68 -6.301,-35.73 m -37.25,43.41 -6.301,-35.73 m 0,0 43.551,-7.68 m 15.676,88.91 -43.547,7.68 m 43.547,-7.68 -6.301,-35.73 m -37.246,43.41 -6.301,-35.731 m 0,0 43.547,-7.679 m 57.019,12.398 -43.547,7.676 m 43.547,-7.676 -6.3,-35.734 m -37.247,43.41 -6.3,-35.731 m 0,0 43.547,-7.679 m -3.079,-17.446 -43.547,7.676 m 43.547,-7.676 -6.297,-35.734 m -37.25,43.41 -6.3,-35.73 m 0,0 43.55,-7.68 m -3.078,-17.445 -43.546,7.676 m 43.546,-7.676 -6.3,-35.735 m -37.246,43.411 -6.301,-35.731 m 0,0 43.547,-7.68 m -3.079,-17.445 -43.546,7.676 m 43.546,-7.676 -6.296,-35.734 m -37.25,43.41 -6.301,-35.731 m 0,0 43.551,-7.679" />
      </g>
    </g>
    <path
       inkscape:connector-curvature="0"
       id="path179"
       style="fill:none;stroke:#000000;stroke-width:0.8;stroke-linecap:round;stroke-linejoin:miter;stroke-miterlimit:4;stroke-dasharray:none;stroke-opacity:1"
       d="m 316.707,97.322 -7.68,-43.543 m 7.68,43.543 35.734,-6.297 m -43.414,-37.246 35.735,-6.301 m 0,0 7.679,43.547" />
    <path
       inkscape:connector-curvature="0"
       id="path181"
       style="fill:none;stroke:#000000;stroke-width:0.8;stroke-linecap:round;stroke-linejoin:miter;stroke-miterlimit:4;stroke-dasharray:none;stroke-opacity:1"
       d="m 446.992,239.599 -43.547,-7.676 m 43.547,7.676 6.301,-35.731 m -49.848,28.055 6.301,-35.734 m 0,0 43.547,7.679 m 3.078,-17.449 -43.551,-7.676 m 43.551,7.676 6.301,-35.73 m -49.852,28.054 6.301,-35.734 m 0,0 43.551,7.68 m 3.074,-17.449 -43.547,-7.676 m 43.547,7.676 6.301,-35.731 m -49.848,28.055 6.301,-35.735 m 0,0 43.547,7.68 m -94.555,-6.484 7.68,-43.547 m -7.68,43.547 35.735,6.297 m -28.055,-49.844 35.73,6.301 m 0,0 -7.675,43.543 M 475.125,80.06 431.574,72.384 m 43.551,7.676 6.301,-35.731 m -49.852,28.055 6.301,-35.734 m 0,0 43.551,7.679 m 44.418,59.067 -43.551,-7.68 m 43.551,7.68 6.301,-35.731 m -49.852,28.051 6.301,-35.73 m 0,0 43.551,7.679 m -15.68,88.91 -43.547,-7.679 m 43.547,7.679 6.301,-35.73 m -49.848,28.051 6.301,-35.731 m 0,0 43.547,7.68 m -15.676,88.91 -43.551,-7.68 m 43.551,7.68 6.301,-35.73 m -49.852,28.05 6.301,-35.73 m 0,0 43.551,7.68 m -15.68,88.91 -43.547,-7.68 m 43.547,7.68 6.301,-35.731 m -49.848,28.051 6.301,-35.73 m 0,0 43.547,7.679 m 43.926,61.856 -43.547,-7.676 m 43.547,7.676 6.3,-35.731 m -49.847,28.055 6.3,-35.734 m 0,0 43.547,7.679 m 3.078,-17.445 -43.55,-7.68 m 43.55,7.68 6.301,-35.734 m -49.851,28.054 6.3,-35.734 m 0,0 43.551,7.68 m 3.074,-17.446 -43.546,-7.679 m 43.546,7.679 6.301,-35.734 m -49.847,28.055 6.3,-35.735 m 0,0 43.547,7.68 m 3.078,-17.445 -43.55,-7.68 m 43.55,7.68 6.301,-35.735 m -49.851,28.055 6.3,-35.734 m 0,0 43.551,7.679 m 49.34,31.153 -43.551,-7.68 m 43.551,7.68 6.301,-35.735 m -49.852,28.055 6.301,-35.731 m 0,0 43.551,7.676 m -15.68,88.914 -43.547,-7.679 m 43.547,7.679 6.301,-35.734 m -49.848,28.055 6.301,-35.731 m 0,0 43.547,7.676 m -15.676,88.914 -43.551,-7.68 m 43.551,7.68 6.301,-35.734 m -49.852,28.054 6.301,-35.73 m 0,0 43.551,7.676" />
    <path
       inkscape:connector-curvature="0"
       id="path183"
       style="fill:none;stroke:#000000;stroke-width:0.8;stroke-linecap:round;stroke-linejoin:miter;stroke-miterlimit:4;stroke-dasharray:none;stroke-opacity:1"
       d="m 603.578,284.482 -43.547,-7.68 m 43.547,7.68 6.301,-35.735 m -49.848,28.055 6.301,-35.73 m 0,0 43.547,7.675 m 48.355,36.735 -43.546,-7.676 m 43.546,7.676 6.301,-35.731 m -49.847,28.055 6.3,-35.734 m 0,0 43.547,7.679 m 3.078,-17.449 -43.551,-7.676 m 43.551,7.676 6.301,-35.73 m -49.852,28.054 6.301,-35.734 m 0,0 43.551,7.68 m 3.074,-17.45 -43.547,-7.675 m 43.547,7.675 6.301,-35.73 m -49.848,28.055 6.301,-35.735 m 0,0 43.547,7.68 m 3.078,-17.449 -43.551,-7.676 m 43.551,7.676 6.301,-35.731 m -49.852,28.055 6.301,-35.735 m 0,0 43.551,7.68" />
  </g>
</svg>
