<?xml version="1.0" encoding="UTF-8" standalone="no"?>
<svg
   xmlns:dc="http://purl.org/dc/elements/1.1/"
   xmlns:cc="http://creativecommons.org/ns#"
   xmlns:rdf="http://www.w3.org/1999/02/22-rdf-syntax-ns#"
   xmlns:svg="http://www.w3.org/2000/svg"
   xmlns="http://www.w3.org/2000/svg"
   xmlns:sodipodi="http://sodipodi.sourceforge.net/DTD/sodipodi-0.dtd"
   xmlns:inkscape="http://www.inkscape.org/namespaces/inkscape"
   inkscape:version="1.0beta1 (32d4812, 2019-09-19)"
   sodipodi:docname="righthand.svg"
   viewBox="0 0 490.31954 382.61159"
   height="101.23265mm"
   width="129.73038mm"
   xml:space="preserve"
   id="svg157"
   version="1.1">
  <metadata
     id="metadata163">
    <rdf:RDF>
      <cc:Work
         rdf:about="">
        <dc:format>image/svg+xml</dc:format>
        <dc:type
           rdf:resource="http://purl.org/dc/dcmitype/StillImage" />
        <dc:title></dc:title>
      </cc:Work>
    </rdf:RDF>
  </metadata>
  <defs
     id="defs161">
    <clipPath
       id="clipPath173"
       clipPathUnits="userSpaceOnUse">
      <path
         inkscape:connector-curvature="0"
         id="path171"
         d="M 0.06,331 H 730 V 0.06 H 0.06 Z" />
    </clipPath>
  </defs>
  <sodipodi:namedview
     fit-margin-right="10"
     fit-margin-left="10"
     fit-margin-bottom="10"
     fit-margin-top="10"
     units="mm"
     inkscape:current-layer="g165"
     inkscape:window-maximized="0"
     inkscape:window-y="57"
     inkscape:window-x="1476"
     inkscape:cy="215.33528"
     inkscape:cx="387.50075"
     inkscape:zoom="1.9933352"
     inkscape:document-units="mm"
     showgrid="false"
     id="namedview159"
     inkscape:window-height="1175"
     inkscape:window-width="2329"
     inkscape:pageshadow="2"
     inkscape:pageopacity="0"
     guidetolerance="10"
     gridtolerance="10"
     objecttolerance="10"
     borderopacity="1"
     inkscape:document-rotation="0"
     bordercolor="#666666"
     pagecolor="#ffffff" />
  <g
     transform="matrix(1.3333333,0,0,-1.3333333,-451.55534,418.21176)"
     inkscape:label="alps-switch-plate-3mm"
     inkscape:groupmode="layer"
     id="g165">
    <path
       inkscape:connector-curvature="0"
       d="m 623.65957,216.73894 -44.22298,-7.7e-4 m 44.22298,7.7e-4 1.3e-4,-36.28528 m -44.22311,36.28451 8.2e-4,-36.28134 m 0,0 44.22229,-0.003"
       style="fill:none;stroke:#000000;stroke-width:0.8;stroke-linecap:round;stroke-linejoin:miter;stroke-miterlimit:4;stroke-dasharray:none;stroke-opacity:1"
       id="path354" />
    <path
       inkscape:connector-curvature="0"
       d="m 623.65753,162.73891 -44.21886,-4.8e-4 m 44.21886,4.8e-4 1.3e-4,-36.28528 m -44.21899,36.2848 6.5e-4,-36.28233 m 0,0 44.21834,-0.002"
       style="fill:none;stroke:#000000;stroke-width:0.8;stroke-linecap:round;stroke-linejoin:miter;stroke-miterlimit:4;stroke-dasharray:none;stroke-opacity:1"
       id="path346" />
    <path
       inkscape:connector-curvature="0"
       d="m 623.65961,108.73917 -44.22298,-7.7e-4 m 44.22298,7.7e-4 -5e-5,-36.286261 m -44.22293,36.285491 6.5e-4,-36.282323 m 0,0 44.22228,-0.0032"
       style="fill:none;stroke:#000000;stroke-width:0.8;stroke-linecap:round;stroke-linejoin:miter;stroke-miterlimit:4;stroke-dasharray:none;stroke-opacity:1"
       id="path338" />
    <path
       inkscape:connector-curvature="0"
       d="m 569.65958,122.91352 -44.222,-9.5e-4 m 44.222,9.5e-4 -5e-5,-36.286263 m -44.22195,36.285313 -8.5e-4,-36.2851 m 0,0 44.2228,-2.13e-4"
       style="fill:none;stroke:#000000;stroke-width:0.8;stroke-linecap:round;stroke-linejoin:miter;stroke-miterlimit:4;stroke-dasharray:none;stroke-opacity:1"
       id="path330" />
    <path
       inkscape:connector-curvature="0"
       d="m 569.6575,176.91326 -44.21788,-6.6e-4 m 44.21788,6.6e-4 1.3e-4,-36.28528 m -44.21801,36.28462 -10e-4,-36.28609 m 0,0 44.21904,0.001"
       style="fill:none;stroke:#000000;stroke-width:0.8;stroke-linecap:round;stroke-linejoin:miter;stroke-miterlimit:4;stroke-dasharray:none;stroke-opacity:1"
       id="path322" />
    <path
       inkscape:connector-curvature="0"
       d="m 569.65954,230.91328 -44.222,-9.4e-4 m 44.222,9.4e-4 1.3e-4,-36.28527 m -44.22213,36.28433 -8.5e-4,-36.2851 m 0,0 44.22298,7.7e-4"
       style="fill:none;stroke:#000000;stroke-width:0.8;stroke-linecap:round;stroke-linejoin:miter;stroke-miterlimit:4;stroke-dasharray:none;stroke-opacity:1"
       id="path314" />
    <path
       inkscape:connector-curvature="0"
       d="m 569.65793,284.90989 -44.21835,0.002 m 44.21835,-0.002 -3.4e-4,-36.28215 m -44.21801,36.28463 -8.6e-4,-36.28511 m 0,0 44.21887,4.8e-4"
       style="fill:none;stroke:#000000;stroke-width:0.8;stroke-linecap:round;stroke-linejoin:miter;stroke-miterlimit:4;stroke-dasharray:none;stroke-opacity:1"
       id="path306" />
    <path
       inkscape:connector-curvature="0"
       d="m 515.65743,267.90362 -44.21904,-10e-4 m 44.21904,10e-4 6.5e-4,-36.28232 m -44.21969,36.28085 8.2e-4,-36.28134 m 0,0 44.21887,4.9e-4"
       style="fill:none;stroke:#000000;stroke-width:0.8;stroke-linecap:round;stroke-linejoin:miter;stroke-miterlimit:4;stroke-dasharray:none;stroke-opacity:1"
       id="path298" />
    <path
       inkscape:connector-curvature="0"
       d="m 515.65933,213.9029 -44.22298,-7.8e-4 m 44.22298,7.8e-4 8.2e-4,-36.28134 m -44.2238,36.28056 8.2e-4,-36.28133 m 0,0 44.22298,7.7e-4"
       style="fill:none;stroke:#000000;stroke-width:0.8;stroke-linecap:round;stroke-linejoin:miter;stroke-miterlimit:4;stroke-dasharray:none;stroke-opacity:1"
       id="path290" />
    <path
       inkscape:connector-curvature="0"
       id="path288"
       d="m 471.43908,123.62006 44.21904,0.001"
       style="fill:none;stroke:#000000;stroke-width:0.8;stroke-linecap:round;stroke-linejoin:miter;stroke-miterlimit:4;stroke-dasharray:none;stroke-opacity:1" />
    <path
       inkscape:connector-curvature="0"
       id="path286"
       d="m 471.43843,159.90239 6.5e-4,-36.28233"
       style="fill:none;stroke:#000000;stroke-width:0.8;stroke-linecap:round;stroke-linejoin:miter;stroke-miterlimit:4;stroke-dasharray:none;stroke-opacity:1" />
    <path
       inkscape:connector-curvature="0"
       id="path284"
       d="m 515.65729,159.90287 8.3e-4,-36.28134"
       style="fill:none;stroke:#000000;stroke-width:0.8;stroke-linecap:round;stroke-linejoin:miter;stroke-miterlimit:4;stroke-dasharray:none;stroke-opacity:1" />
    <path
       inkscape:connector-curvature="0"
       id="path282"
       d="m 515.65729,159.90287 -44.21886,-4.8e-4"
       style="fill:none;stroke:#000000;stroke-width:0.8;stroke-linecap:round;stroke-linejoin:miter;stroke-miterlimit:4;stroke-dasharray:none;stroke-opacity:1" />
    <path
       inkscape:connector-curvature="0"
       id="path280"
       d="m 471.43721,69.62102 44.22281,-2.13e-4"
       style="fill:none;stroke:#000000;stroke-width:0.8;stroke-linecap:round;stroke-linejoin:miter;stroke-miterlimit:4;stroke-dasharray:none;stroke-opacity:1" />
    <path
       inkscape:connector-curvature="0"
       id="path278"
       d="m 471.43639,105.90236 8.2e-4,-36.28134"
       style="fill:none;stroke:#000000;stroke-width:0.8;stroke-linecap:round;stroke-linejoin:miter;stroke-miterlimit:4;stroke-dasharray:none;stroke-opacity:1" />
    <path
       inkscape:connector-curvature="0"
       id="path276"
       d="m 515.65937,105.90313 6.5e-4,-36.282323"
       style="fill:none;stroke:#000000;stroke-width:0.8;stroke-linecap:round;stroke-linejoin:miter;stroke-miterlimit:4;stroke-dasharray:none;stroke-opacity:1" />
    <path
       inkscape:connector-curvature="0"
       id="path274"
       d="m 515.65937,105.90313 -44.22298,-7.7e-4"
       style="fill:none;stroke:#000000;stroke-width:0.8;stroke-linecap:round;stroke-linejoin:miter;stroke-miterlimit:4;stroke-dasharray:none;stroke-opacity:1" />
    <path
       inkscape:connector-curvature="0"
       d="m 461.65865,91.728919 -44.22229,0.0032 m 44.22229,-0.0032 6.5e-4,-36.282323 m -44.22294,36.28549 1.3e-4,-36.285277 m 0,0 44.22281,-2.13e-4"
       style="fill:none;stroke:#000000;stroke-width:0.8;stroke-linecap:round;stroke-linejoin:miter;stroke-miterlimit:4;stroke-dasharray:none;stroke-opacity:1"
       id="path266" />
    <path
       inkscape:connector-curvature="0"
       d="m 367.41297,119.48113 0.001,-44.219043 m -0.001,44.219043 36.28556,-0.004 m -36.2841,-44.215053 36.28134,8.24e-4 m 0,0 0.003,44.214229"
       style="fill:none;stroke:#000000;stroke-width:0.8;stroke-linecap:round;stroke-linejoin:miter;stroke-miterlimit:4;stroke-dasharray:none;stroke-opacity:1"
       id="path258" />
    <path
       inkscape:connector-curvature="0"
       d="m 461.65675,145.72964 -44.21835,0.002 m 44.21835,-0.002 6.5e-4,-36.28232 m -44.219,36.28479 -4e-5,-36.28626 m 0,0 44.21904,0.001"
       style="fill:none;stroke:#000000;stroke-width:0.8;stroke-linecap:round;stroke-linejoin:miter;stroke-miterlimit:4;stroke-dasharray:none;stroke-opacity:1"
       id="path250" />
    <path
       inkscape:connector-curvature="0"
       d="m 461.65861,199.72868 -44.22228,0.003 m 44.22228,-0.003 8.3e-4,-36.28133 m -44.22311,36.2845 1.3e-4,-36.28528 m 0,0 44.22298,7.8e-4"
       style="fill:none;stroke:#000000;stroke-width:0.8;stroke-linecap:round;stroke-linejoin:miter;stroke-miterlimit:4;stroke-dasharray:none;stroke-opacity:1"
       id="path242" />
    <path
       inkscape:connector-curvature="0"
       d="m 461.65671,253.72941 -44.21835,0.002 m 44.21835,-0.002 6.5e-4,-36.28233 m -44.219,36.2848 1.3e-4,-36.28528 m 0,0 44.21887,4.8e-4"
       style="fill:none;stroke:#000000;stroke-width:0.8;stroke-linecap:round;stroke-linejoin:miter;stroke-miterlimit:4;stroke-dasharray:none;stroke-opacity:1"
       id="path181" />
    <path
       inkscape:connector-curvature="0"
       d="m 677.65891,100.23306 -44.22229,0.003 m 44.22229,-0.003 6.5e-4,-36.282319 m -44.22294,36.285489 -4e-5,-36.28626 m 0,0 44.22298,7.71e-4"
       style="fill:none;stroke:#000000;stroke-width:0.8;stroke-linecap:round;stroke-linejoin:miter;stroke-miterlimit:4;stroke-dasharray:none;stroke-opacity:1"
       id="path394" />
    <path
       inkscape:connector-curvature="0"
       d="m 677.65683,154.2328 -44.21817,0.003 m 44.21817,-0.003 8.3e-4,-36.28134 m -44.219,36.2848 -4e-5,-36.28626 m 0,0 44.21904,10e-4"
       style="fill:none;stroke:#000000;stroke-width:0.8;stroke-linecap:round;stroke-linejoin:miter;stroke-miterlimit:4;stroke-dasharray:none;stroke-opacity:1"
       id="path386" />
    <path
       inkscape:connector-curvature="0"
       d="m 677.65887,208.23283 -44.22228,0.003 m 44.22228,-0.003 8.3e-4,-36.28134 m -44.22311,36.28451 1.2e-4,-36.28528 m 0,0 44.22299,7.7e-4"
       style="fill:none;stroke:#000000;stroke-width:0.8;stroke-linecap:round;stroke-linejoin:miter;stroke-miterlimit:4;stroke-dasharray:none;stroke-opacity:1"
       id="path378" />
    <path
       inkscape:connector-curvature="0"
       d="m 677.65697,262.23355 -44.21736,0.002 m 44.21736,-0.002 6.5e-4,-36.28232 m -44.21801,36.28462 -8.6e-4,-36.2851 m 0,0 44.21887,4.8e-4"
       style="fill:none;stroke:#000000;stroke-width:0.8;stroke-linecap:round;stroke-linejoin:miter;stroke-miterlimit:4;stroke-dasharray:none;stroke-opacity:1"
       id="path370" />
    <path
       inkscape:connector-curvature="0"
       d="m 623.65767,270.73966 -44.21904,-0.001 m 44.21904,0.001 -5e-5,-36.28626 m -44.21899,36.28479 8.2e-4,-36.28133 m 0,0 44.21817,-0.003"
       style="fill:none;stroke:#000000;stroke-width:0.8;stroke-linecap:round;stroke-linejoin:miter;stroke-miterlimit:4;stroke-dasharray:none;stroke-opacity:1"
       id="path183" />
  </g>
</svg>
